<mxfile host="app.diagrams.net" agent="Mozilla/5.0 (Macintosh; Intel Mac OS X 10.15; rv:135.0) Gecko/20100101 Firefox/135.0" version="26.0.15">
  <diagram name="Page-1" id="KKWdKJqK2y3jMwKWDqGT">
    <mxGraphModel dx="3348" dy="2490" grid="0" gridSize="10" guides="1" tooltips="1" connect="1" arrows="1" fold="1" page="0" pageScale="1" pageWidth="850" pageHeight="1100" math="0" shadow="0">
      <root>
        <mxCell id="0" />
        <mxCell id="1" parent="0" />
        <mxCell id="XFWw_BHFRaA0V7DDkEPR-1" value="" style="edgeStyle=orthogonalEdgeStyle;rounded=0;orthogonalLoop=1;jettySize=auto;html=1;" parent="1" source="XFWw_BHFRaA0V7DDkEPR-5" target="XFWw_BHFRaA0V7DDkEPR-10" edge="1">
          <mxGeometry relative="1" as="geometry" />
        </mxCell>
        <mxCell id="XFWw_BHFRaA0V7DDkEPR-3" value="" style="edgeStyle=orthogonalEdgeStyle;rounded=0;orthogonalLoop=1;jettySize=auto;html=1;" parent="1" source="XFWw_BHFRaA0V7DDkEPR-5" target="XFWw_BHFRaA0V7DDkEPR-15" edge="1">
          <mxGeometry relative="1" as="geometry" />
        </mxCell>
        <mxCell id="XFWw_BHFRaA0V7DDkEPR-5" value="Status Quo" style="rounded=1;whiteSpace=wrap;html=1;fontSize=12;glass=0;strokeWidth=1;shadow=0;" parent="1" vertex="1">
          <mxGeometry x="40" y="320" width="120" height="40" as="geometry" />
        </mxCell>
        <mxCell id="Ok8Pc9Gzmr__ICNm_Pqy-4" style="edgeStyle=none;curved=1;rounded=0;orthogonalLoop=1;jettySize=auto;html=1;exitX=0.5;exitY=0;exitDx=0;exitDy=0;entryX=0;entryY=0.5;entryDx=0;entryDy=0;fontSize=12;startSize=8;endSize=8;" edge="1" parent="1" source="XFWw_BHFRaA0V7DDkEPR-10" target="XFWw_BHFRaA0V7DDkEPR-25">
          <mxGeometry relative="1" as="geometry" />
        </mxCell>
        <mxCell id="Ok8Pc9Gzmr__ICNm_Pqy-5" style="edgeStyle=none;curved=1;rounded=0;orthogonalLoop=1;jettySize=auto;html=1;exitX=1;exitY=0.5;exitDx=0;exitDy=0;entryX=0;entryY=0.5;entryDx=0;entryDy=0;fontSize=12;startSize=8;endSize=8;" edge="1" parent="1" source="XFWw_BHFRaA0V7DDkEPR-10" target="XFWw_BHFRaA0V7DDkEPR-20">
          <mxGeometry relative="1" as="geometry" />
        </mxCell>
        <mxCell id="XFWw_BHFRaA0V7DDkEPR-10" value="Susceptible" style="rounded=1;whiteSpace=wrap;html=1;fontSize=12;glass=0;strokeWidth=1;shadow=0;" parent="1" vertex="1">
          <mxGeometry x="200" y="80" width="120" height="40" as="geometry" />
        </mxCell>
        <mxCell id="XFWw_BHFRaA0V7DDkEPR-11" value="" style="edgeStyle=orthogonalEdgeStyle;rounded=0;orthogonalLoop=1;jettySize=auto;html=1;entryX=0;entryY=0.5;entryDx=0;entryDy=0;" parent="1" source="XFWw_BHFRaA0V7DDkEPR-15" target="XFWw_BHFRaA0V7DDkEPR-26" edge="1">
          <mxGeometry relative="1" as="geometry" />
        </mxCell>
        <mxCell id="XFWw_BHFRaA0V7DDkEPR-13" value="" style="edgeStyle=orthogonalEdgeStyle;rounded=0;orthogonalLoop=1;jettySize=auto;html=1;entryX=0;entryY=0.5;entryDx=0;entryDy=0;" parent="1" source="XFWw_BHFRaA0V7DDkEPR-15" target="XFWw_BHFRaA0V7DDkEPR-27" edge="1">
          <mxGeometry relative="1" as="geometry" />
        </mxCell>
        <mxCell id="XFWw_BHFRaA0V7DDkEPR-15" value="Immune" style="rounded=1;whiteSpace=wrap;html=1;fontSize=12;glass=0;strokeWidth=1;shadow=0;" parent="1" vertex="1">
          <mxGeometry x="200" y="957" width="120" height="40" as="geometry" />
        </mxCell>
        <mxCell id="XFWw_BHFRaA0V7DDkEPR-16" value="" style="edgeStyle=orthogonalEdgeStyle;rounded=0;orthogonalLoop=1;jettySize=auto;html=1;" parent="1" source="XFWw_BHFRaA0V7DDkEPR-20" target="XFWw_BHFRaA0V7DDkEPR-36" edge="1">
          <mxGeometry relative="1" as="geometry" />
        </mxCell>
        <mxCell id="XFWw_BHFRaA0V7DDkEPR-18" value="" style="edgeStyle=orthogonalEdgeStyle;rounded=0;orthogonalLoop=1;jettySize=auto;html=1;" parent="1" source="XFWw_BHFRaA0V7DDkEPR-20" target="XFWw_BHFRaA0V7DDkEPR-37" edge="1">
          <mxGeometry relative="1" as="geometry" />
        </mxCell>
        <mxCell id="XFWw_BHFRaA0V7DDkEPR-20" value="Maternal infection within 14-20 weeks" style="rounded=1;whiteSpace=wrap;html=1;fontSize=12;glass=0;strokeWidth=1;shadow=0;" parent="1" vertex="1">
          <mxGeometry x="500" y="302" width="120" height="40" as="geometry" />
        </mxCell>
        <mxCell id="XFWw_BHFRaA0V7DDkEPR-21" value="" style="edgeStyle=orthogonalEdgeStyle;rounded=0;orthogonalLoop=1;jettySize=auto;html=1;entryX=0;entryY=0.75;entryDx=0;entryDy=0;" parent="1" source="XFWw_BHFRaA0V7DDkEPR-25" target="XFWw_BHFRaA0V7DDkEPR-28" edge="1">
          <mxGeometry relative="1" as="geometry" />
        </mxCell>
        <mxCell id="XFWw_BHFRaA0V7DDkEPR-23" value="" style="edgeStyle=orthogonalEdgeStyle;rounded=0;orthogonalLoop=1;jettySize=auto;html=1;entryX=0;entryY=0.5;entryDx=0;entryDy=0;" parent="1" source="XFWw_BHFRaA0V7DDkEPR-25" target="XFWw_BHFRaA0V7DDkEPR-29" edge="1">
          <mxGeometry relative="1" as="geometry" />
        </mxCell>
        <mxCell id="XFWw_BHFRaA0V7DDkEPR-25" value="Maternal infection not within 14-20 weeks" style="rounded=1;whiteSpace=wrap;html=1;fontSize=12;glass=0;strokeWidth=1;shadow=0;" parent="1" vertex="1">
          <mxGeometry x="510" y="-423" width="120" height="40" as="geometry" />
        </mxCell>
        <mxCell id="XFWw_BHFRaA0V7DDkEPR-26" value="Live birth" style="rounded=1;whiteSpace=wrap;html=1;fontSize=12;glass=0;strokeWidth=1;shadow=0;" parent="1" vertex="1">
          <mxGeometry x="368" y="922" width="120" height="40" as="geometry" />
        </mxCell>
        <mxCell id="XFWw_BHFRaA0V7DDkEPR-27" value="Fetal death" style="rounded=1;whiteSpace=wrap;html=1;fontSize=12;glass=0;strokeWidth=1;shadow=0;" parent="1" vertex="1">
          <mxGeometry x="368" y="994" width="120" height="40" as="geometry" />
        </mxCell>
        <mxCell id="XFWw_BHFRaA0V7DDkEPR-28" value="Maternal infection within 1-13 weeks" style="rounded=1;whiteSpace=wrap;html=1;fontSize=12;glass=0;strokeWidth=1;shadow=0;" parent="1" vertex="1">
          <mxGeometry x="707" y="-545" width="120" height="40" as="geometry" />
        </mxCell>
        <mxCell id="XFWw_BHFRaA0V7DDkEPR-29" value="No maternal infection " style="rounded=1;whiteSpace=wrap;html=1;fontSize=12;glass=0;strokeWidth=1;shadow=0;" parent="1" vertex="1">
          <mxGeometry x="707" y="-339" width="120" height="40" as="geometry" />
        </mxCell>
        <mxCell id="XFWw_BHFRaA0V7DDkEPR-30" value="" style="edgeStyle=orthogonalEdgeStyle;rounded=0;orthogonalLoop=1;jettySize=auto;html=1;" parent="1" source="XFWw_BHFRaA0V7DDkEPR-36" target="XFWw_BHFRaA0V7DDkEPR-38" edge="1">
          <mxGeometry relative="1" as="geometry" />
        </mxCell>
        <mxCell id="XFWw_BHFRaA0V7DDkEPR-31" value="" style="edgeStyle=orthogonalEdgeStyle;rounded=0;orthogonalLoop=1;jettySize=auto;html=1;" parent="1" source="XFWw_BHFRaA0V7DDkEPR-36" target="XFWw_BHFRaA0V7DDkEPR-38" edge="1">
          <mxGeometry relative="1" as="geometry" />
        </mxCell>
        <mxCell id="XFWw_BHFRaA0V7DDkEPR-32" value="" style="edgeStyle=orthogonalEdgeStyle;rounded=0;orthogonalLoop=1;jettySize=auto;html=1;" parent="1" source="XFWw_BHFRaA0V7DDkEPR-36" target="XFWw_BHFRaA0V7DDkEPR-38" edge="1">
          <mxGeometry relative="1" as="geometry" />
        </mxCell>
        <mxCell id="XFWw_BHFRaA0V7DDkEPR-34" value="" style="edgeStyle=orthogonalEdgeStyle;rounded=0;orthogonalLoop=1;jettySize=auto;html=1;" parent="1" source="XFWw_BHFRaA0V7DDkEPR-36" target="XFWw_BHFRaA0V7DDkEPR-43" edge="1">
          <mxGeometry relative="1" as="geometry" />
        </mxCell>
        <mxCell id="XFWw_BHFRaA0V7DDkEPR-36" value="Undetected maternal infection" style="rounded=1;whiteSpace=wrap;html=1;fontSize=12;glass=0;strokeWidth=1;shadow=0;" parent="1" vertex="1">
          <mxGeometry x="660" y="702" width="120" height="40" as="geometry" />
        </mxCell>
        <mxCell id="XFWw_BHFRaA0V7DDkEPR-37" value="Detected maternal infection" style="rounded=1;whiteSpace=wrap;html=1;fontSize=12;glass=0;strokeWidth=1;shadow=0;" parent="1" vertex="1">
          <mxGeometry x="660" y="102" width="120" height="40" as="geometry" />
        </mxCell>
        <mxCell id="XFWw_BHFRaA0V7DDkEPR-38" value="Severe fetal anemia" style="rounded=1;whiteSpace=wrap;html=1;fontSize=12;glass=0;strokeWidth=1;shadow=0;" parent="1" vertex="1">
          <mxGeometry x="820" y="542" width="120" height="40" as="geometry" />
        </mxCell>
        <mxCell id="XFWw_BHFRaA0V7DDkEPR-39" value="" style="edgeStyle=orthogonalEdgeStyle;rounded=0;orthogonalLoop=1;jettySize=auto;html=1;" parent="1" source="XFWw_BHFRaA0V7DDkEPR-43" target="XFWw_BHFRaA0V7DDkEPR-92" edge="1">
          <mxGeometry relative="1" as="geometry" />
        </mxCell>
        <mxCell id="XFWw_BHFRaA0V7DDkEPR-41" value="" style="edgeStyle=orthogonalEdgeStyle;rounded=0;orthogonalLoop=1;jettySize=auto;html=1;" parent="1" source="XFWw_BHFRaA0V7DDkEPR-43" target="XFWw_BHFRaA0V7DDkEPR-93" edge="1">
          <mxGeometry relative="1" as="geometry" />
        </mxCell>
        <mxCell id="XFWw_BHFRaA0V7DDkEPR-43" value="No severe fetal anemia" style="rounded=1;whiteSpace=wrap;html=1;fontSize=12;glass=0;strokeWidth=1;shadow=0;" parent="1" vertex="1">
          <mxGeometry x="820" y="782" width="120" height="40" as="geometry" />
        </mxCell>
        <mxCell id="XFWw_BHFRaA0V7DDkEPR-44" value="" style="edgeStyle=orthogonalEdgeStyle;rounded=0;orthogonalLoop=1;jettySize=auto;html=1;" parent="1" target="XFWw_BHFRaA0V7DDkEPR-52" edge="1">
          <mxGeometry relative="1" as="geometry">
            <mxPoint x="940" y="562" as="sourcePoint" />
          </mxGeometry>
        </mxCell>
        <mxCell id="XFWw_BHFRaA0V7DDkEPR-46" value="" style="edgeStyle=orthogonalEdgeStyle;rounded=0;orthogonalLoop=1;jettySize=auto;html=1;" parent="1" target="XFWw_BHFRaA0V7DDkEPR-57" edge="1">
          <mxGeometry relative="1" as="geometry">
            <mxPoint x="940" y="562" as="sourcePoint" />
          </mxGeometry>
        </mxCell>
        <mxCell id="XFWw_BHFRaA0V7DDkEPR-48" value="" style="edgeStyle=orthogonalEdgeStyle;rounded=0;orthogonalLoop=1;jettySize=auto;html=1;" parent="1" source="XFWw_BHFRaA0V7DDkEPR-52" target="XFWw_BHFRaA0V7DDkEPR-58" edge="1">
          <mxGeometry relative="1" as="geometry" />
        </mxCell>
        <mxCell id="XFWw_BHFRaA0V7DDkEPR-50" value="" style="edgeStyle=orthogonalEdgeStyle;rounded=0;orthogonalLoop=1;jettySize=auto;html=1;" parent="1" source="XFWw_BHFRaA0V7DDkEPR-52" target="XFWw_BHFRaA0V7DDkEPR-59" edge="1">
          <mxGeometry relative="1" as="geometry" />
        </mxCell>
        <mxCell id="XFWw_BHFRaA0V7DDkEPR-52" value="Transfusion" style="rounded=1;whiteSpace=wrap;html=1;fontSize=12;glass=0;strokeWidth=1;shadow=0;" parent="1" vertex="1">
          <mxGeometry x="980" y="422" width="120" height="40" as="geometry" />
        </mxCell>
        <mxCell id="XFWw_BHFRaA0V7DDkEPR-53" value="" style="edgeStyle=orthogonalEdgeStyle;rounded=0;orthogonalLoop=1;jettySize=auto;html=1;" parent="1" source="XFWw_BHFRaA0V7DDkEPR-57" target="XFWw_BHFRaA0V7DDkEPR-60" edge="1">
          <mxGeometry relative="1" as="geometry" />
        </mxCell>
        <mxCell id="XFWw_BHFRaA0V7DDkEPR-55" value="" style="edgeStyle=orthogonalEdgeStyle;rounded=0;orthogonalLoop=1;jettySize=auto;html=1;" parent="1" source="XFWw_BHFRaA0V7DDkEPR-57" target="XFWw_BHFRaA0V7DDkEPR-61" edge="1">
          <mxGeometry relative="1" as="geometry" />
        </mxCell>
        <mxCell id="XFWw_BHFRaA0V7DDkEPR-57" value="No transfusion" style="rounded=1;whiteSpace=wrap;html=1;fontSize=12;glass=0;strokeWidth=1;shadow=0;" parent="1" vertex="1">
          <mxGeometry x="980" y="622" width="120" height="40" as="geometry" />
        </mxCell>
        <mxCell id="XFWw_BHFRaA0V7DDkEPR-58" value="Fetal death" style="rounded=1;whiteSpace=wrap;html=1;fontSize=12;glass=0;strokeWidth=1;shadow=0;" parent="1" vertex="1">
          <mxGeometry x="1180" y="462" width="120" height="40" as="geometry" />
        </mxCell>
        <mxCell id="XFWw_BHFRaA0V7DDkEPR-59" value="Live birth" style="rounded=1;whiteSpace=wrap;html=1;fontSize=12;glass=0;strokeWidth=1;shadow=0;" parent="1" vertex="1">
          <mxGeometry x="1180" y="382" width="120" height="40" as="geometry" />
        </mxCell>
        <mxCell id="XFWw_BHFRaA0V7DDkEPR-60" value="Live birth" style="rounded=1;whiteSpace=wrap;html=1;fontSize=12;glass=0;strokeWidth=1;shadow=0;" parent="1" vertex="1">
          <mxGeometry x="1180" y="582" width="120" height="40" as="geometry" />
        </mxCell>
        <mxCell id="XFWw_BHFRaA0V7DDkEPR-61" value="Fetal death" style="rounded=1;whiteSpace=wrap;html=1;fontSize=12;glass=0;strokeWidth=1;shadow=0;" parent="1" vertex="1">
          <mxGeometry x="1180" y="662" width="120" height="40" as="geometry" />
        </mxCell>
        <mxCell id="XFWw_BHFRaA0V7DDkEPR-62" value="" style="edgeStyle=orthogonalEdgeStyle;rounded=0;orthogonalLoop=1;jettySize=auto;html=1;" parent="1" target="XFWw_BHFRaA0V7DDkEPR-68" edge="1">
          <mxGeometry relative="1" as="geometry">
            <mxPoint x="780" y="122" as="sourcePoint" />
          </mxGeometry>
        </mxCell>
        <mxCell id="XFWw_BHFRaA0V7DDkEPR-63" value="" style="edgeStyle=orthogonalEdgeStyle;rounded=0;orthogonalLoop=1;jettySize=auto;html=1;" parent="1" target="XFWw_BHFRaA0V7DDkEPR-68" edge="1">
          <mxGeometry relative="1" as="geometry">
            <mxPoint x="780" y="122" as="sourcePoint" />
          </mxGeometry>
        </mxCell>
        <mxCell id="XFWw_BHFRaA0V7DDkEPR-64" value="" style="edgeStyle=orthogonalEdgeStyle;rounded=0;orthogonalLoop=1;jettySize=auto;html=1;" parent="1" target="XFWw_BHFRaA0V7DDkEPR-68" edge="1">
          <mxGeometry relative="1" as="geometry">
            <mxPoint x="780" y="122" as="sourcePoint" />
          </mxGeometry>
        </mxCell>
        <mxCell id="XFWw_BHFRaA0V7DDkEPR-66" value="" style="edgeStyle=orthogonalEdgeStyle;rounded=0;orthogonalLoop=1;jettySize=auto;html=1;" parent="1" target="XFWw_BHFRaA0V7DDkEPR-73" edge="1">
          <mxGeometry relative="1" as="geometry">
            <mxPoint x="780" y="122" as="sourcePoint" />
          </mxGeometry>
        </mxCell>
        <mxCell id="XFWw_BHFRaA0V7DDkEPR-68" value="Severe fetal anemia" style="rounded=1;whiteSpace=wrap;html=1;fontSize=12;glass=0;strokeWidth=1;shadow=0;" parent="1" vertex="1">
          <mxGeometry x="820" y="-58" width="120" height="40" as="geometry" />
        </mxCell>
        <mxCell id="XFWw_BHFRaA0V7DDkEPR-69" value="" style="edgeStyle=orthogonalEdgeStyle;rounded=0;orthogonalLoop=1;jettySize=auto;html=1;" parent="1" source="XFWw_BHFRaA0V7DDkEPR-73" target="XFWw_BHFRaA0V7DDkEPR-94" edge="1">
          <mxGeometry relative="1" as="geometry" />
        </mxCell>
        <mxCell id="XFWw_BHFRaA0V7DDkEPR-71" value="" style="edgeStyle=orthogonalEdgeStyle;rounded=0;orthogonalLoop=1;jettySize=auto;html=1;" parent="1" source="XFWw_BHFRaA0V7DDkEPR-73" target="XFWw_BHFRaA0V7DDkEPR-95" edge="1">
          <mxGeometry relative="1" as="geometry" />
        </mxCell>
        <mxCell id="XFWw_BHFRaA0V7DDkEPR-73" value="No severe fetal anemia" style="rounded=1;whiteSpace=wrap;html=1;fontSize=12;glass=0;strokeWidth=1;shadow=0;" parent="1" vertex="1">
          <mxGeometry x="820" y="182" width="120" height="40" as="geometry" />
        </mxCell>
        <mxCell id="XFWw_BHFRaA0V7DDkEPR-74" value="" style="edgeStyle=orthogonalEdgeStyle;rounded=0;orthogonalLoop=1;jettySize=auto;html=1;" parent="1" target="XFWw_BHFRaA0V7DDkEPR-82" edge="1">
          <mxGeometry relative="1" as="geometry">
            <mxPoint x="940" y="-38" as="sourcePoint" />
          </mxGeometry>
        </mxCell>
        <mxCell id="XFWw_BHFRaA0V7DDkEPR-76" value="" style="edgeStyle=orthogonalEdgeStyle;rounded=0;orthogonalLoop=1;jettySize=auto;html=1;" parent="1" target="XFWw_BHFRaA0V7DDkEPR-87" edge="1">
          <mxGeometry relative="1" as="geometry">
            <mxPoint x="940" y="-38" as="sourcePoint" />
          </mxGeometry>
        </mxCell>
        <mxCell id="XFWw_BHFRaA0V7DDkEPR-78" value="" style="edgeStyle=orthogonalEdgeStyle;rounded=0;orthogonalLoop=1;jettySize=auto;html=1;" parent="1" source="XFWw_BHFRaA0V7DDkEPR-82" target="XFWw_BHFRaA0V7DDkEPR-88" edge="1">
          <mxGeometry relative="1" as="geometry" />
        </mxCell>
        <mxCell id="XFWw_BHFRaA0V7DDkEPR-80" value="" style="edgeStyle=orthogonalEdgeStyle;rounded=0;orthogonalLoop=1;jettySize=auto;html=1;" parent="1" source="XFWw_BHFRaA0V7DDkEPR-82" target="XFWw_BHFRaA0V7DDkEPR-89" edge="1">
          <mxGeometry relative="1" as="geometry" />
        </mxCell>
        <mxCell id="XFWw_BHFRaA0V7DDkEPR-209" value="" style="edgeStyle=none;curved=1;rounded=0;orthogonalLoop=1;jettySize=auto;html=1;fontSize=12;startSize=8;endSize=8;" parent="1" source="XFWw_BHFRaA0V7DDkEPR-82" target="XFWw_BHFRaA0V7DDkEPR-87" edge="1">
          <mxGeometry relative="1" as="geometry" />
        </mxCell>
        <mxCell id="XFWw_BHFRaA0V7DDkEPR-82" value="Transfusion" style="rounded=1;whiteSpace=wrap;html=1;fontSize=12;glass=0;strokeWidth=1;shadow=0;" parent="1" vertex="1">
          <mxGeometry x="980" y="-138" width="120" height="40" as="geometry" />
        </mxCell>
        <mxCell id="XFWw_BHFRaA0V7DDkEPR-83" value="" style="edgeStyle=orthogonalEdgeStyle;rounded=0;orthogonalLoop=1;jettySize=auto;html=1;" parent="1" source="XFWw_BHFRaA0V7DDkEPR-87" target="XFWw_BHFRaA0V7DDkEPR-90" edge="1">
          <mxGeometry relative="1" as="geometry" />
        </mxCell>
        <mxCell id="XFWw_BHFRaA0V7DDkEPR-85" value="" style="edgeStyle=orthogonalEdgeStyle;rounded=0;orthogonalLoop=1;jettySize=auto;html=1;" parent="1" source="XFWw_BHFRaA0V7DDkEPR-87" target="XFWw_BHFRaA0V7DDkEPR-91" edge="1">
          <mxGeometry relative="1" as="geometry" />
        </mxCell>
        <mxCell id="XFWw_BHFRaA0V7DDkEPR-87" value="No transfusion" style="rounded=1;whiteSpace=wrap;html=1;fontSize=12;glass=0;strokeWidth=1;shadow=0;" parent="1" vertex="1">
          <mxGeometry x="980" y="22" width="120" height="40" as="geometry" />
        </mxCell>
        <mxCell id="XFWw_BHFRaA0V7DDkEPR-88" value="Fetal death" style="rounded=1;whiteSpace=wrap;html=1;fontSize=12;glass=0;strokeWidth=1;shadow=0;" parent="1" vertex="1">
          <mxGeometry x="1179" y="-98" width="120" height="40" as="geometry" />
        </mxCell>
        <mxCell id="XFWw_BHFRaA0V7DDkEPR-89" value="Live birth" style="rounded=1;whiteSpace=wrap;html=1;fontSize=12;glass=0;strokeWidth=1;shadow=0;" parent="1" vertex="1">
          <mxGeometry x="1180" y="-178" width="120" height="40" as="geometry" />
        </mxCell>
        <mxCell id="XFWw_BHFRaA0V7DDkEPR-90" value="Live birth" style="rounded=1;whiteSpace=wrap;html=1;fontSize=12;glass=0;strokeWidth=1;shadow=0;" parent="1" vertex="1">
          <mxGeometry x="1180" y="-18" width="120" height="40" as="geometry" />
        </mxCell>
        <mxCell id="XFWw_BHFRaA0V7DDkEPR-91" value="Fetal death" style="rounded=1;whiteSpace=wrap;html=1;fontSize=12;glass=0;strokeWidth=1;shadow=0;" parent="1" vertex="1">
          <mxGeometry x="1180" y="62" width="120" height="40" as="geometry" />
        </mxCell>
        <mxCell id="XFWw_BHFRaA0V7DDkEPR-92" value="Live birth" style="rounded=1;whiteSpace=wrap;html=1;fontSize=12;glass=0;strokeWidth=1;shadow=0;" parent="1" vertex="1">
          <mxGeometry x="1020" y="742" width="120" height="40" as="geometry" />
        </mxCell>
        <mxCell id="XFWw_BHFRaA0V7DDkEPR-93" value="Fetal death" style="rounded=1;whiteSpace=wrap;html=1;fontSize=12;glass=0;strokeWidth=1;shadow=0;" parent="1" vertex="1">
          <mxGeometry x="1020" y="822" width="120" height="40" as="geometry" />
        </mxCell>
        <mxCell id="XFWw_BHFRaA0V7DDkEPR-94" value="Live birth" style="rounded=1;whiteSpace=wrap;html=1;fontSize=12;glass=0;strokeWidth=1;shadow=0;" parent="1" vertex="1">
          <mxGeometry x="1020" y="142" width="120" height="40" as="geometry" />
        </mxCell>
        <mxCell id="XFWw_BHFRaA0V7DDkEPR-95" value="Fetal death" style="rounded=1;whiteSpace=wrap;html=1;fontSize=12;glass=0;strokeWidth=1;shadow=0;" parent="1" vertex="1">
          <mxGeometry x="1020" y="222" width="120" height="40" as="geometry" />
        </mxCell>
        <mxCell id="XFWw_BHFRaA0V7DDkEPR-212" value="" style="edgeStyle=orthogonalEdgeStyle;rounded=0;orthogonalLoop=1;jettySize=auto;html=1;entryX=0;entryY=0.5;entryDx=0;entryDy=0;" parent="1" target="XFWw_BHFRaA0V7DDkEPR-214" edge="1">
          <mxGeometry relative="1" as="geometry">
            <mxPoint x="828" y="-528" as="sourcePoint" />
          </mxGeometry>
        </mxCell>
        <mxCell id="XFWw_BHFRaA0V7DDkEPR-213" value="" style="edgeStyle=orthogonalEdgeStyle;rounded=0;orthogonalLoop=1;jettySize=auto;html=1;entryX=0;entryY=0.5;entryDx=0;entryDy=0;" parent="1" target="XFWw_BHFRaA0V7DDkEPR-215" edge="1">
          <mxGeometry relative="1" as="geometry">
            <mxPoint x="828" y="-528" as="sourcePoint" />
          </mxGeometry>
        </mxCell>
        <mxCell id="XFWw_BHFRaA0V7DDkEPR-214" value="Live birth" style="rounded=1;whiteSpace=wrap;html=1;fontSize=12;glass=0;strokeWidth=1;shadow=0;" parent="1" vertex="1">
          <mxGeometry x="881" y="-591" width="120" height="40" as="geometry" />
        </mxCell>
        <mxCell id="XFWw_BHFRaA0V7DDkEPR-215" value="Fetal death" style="rounded=1;whiteSpace=wrap;html=1;fontSize=12;glass=0;strokeWidth=1;shadow=0;" parent="1" vertex="1">
          <mxGeometry x="882" y="-505" width="120" height="40" as="geometry" />
        </mxCell>
        <mxCell id="XFWw_BHFRaA0V7DDkEPR-216" value="" style="edgeStyle=orthogonalEdgeStyle;rounded=0;orthogonalLoop=1;jettySize=auto;html=1;entryX=0;entryY=0.5;entryDx=0;entryDy=0;" parent="1" target="XFWw_BHFRaA0V7DDkEPR-218" edge="1">
          <mxGeometry relative="1" as="geometry">
            <mxPoint x="827" y="-319" as="sourcePoint" />
          </mxGeometry>
        </mxCell>
        <mxCell id="XFWw_BHFRaA0V7DDkEPR-217" value="" style="edgeStyle=orthogonalEdgeStyle;rounded=0;orthogonalLoop=1;jettySize=auto;html=1;entryX=0;entryY=0.5;entryDx=0;entryDy=0;" parent="1" target="XFWw_BHFRaA0V7DDkEPR-219" edge="1">
          <mxGeometry relative="1" as="geometry">
            <mxPoint x="827" y="-319" as="sourcePoint" />
          </mxGeometry>
        </mxCell>
        <mxCell id="XFWw_BHFRaA0V7DDkEPR-218" value="Live birth" style="rounded=1;whiteSpace=wrap;html=1;fontSize=12;glass=0;strokeWidth=1;shadow=0;" parent="1" vertex="1">
          <mxGeometry x="881" y="-376" width="120" height="40" as="geometry" />
        </mxCell>
        <mxCell id="XFWw_BHFRaA0V7DDkEPR-219" value="Fetal death" style="rounded=1;whiteSpace=wrap;html=1;fontSize=12;glass=0;strokeWidth=1;shadow=0;" parent="1" vertex="1">
          <mxGeometry x="881" y="-294" width="120" height="40" as="geometry" />
        </mxCell>
      </root>
    </mxGraphModel>
  </diagram>
</mxfile>
